<?xml version="1.0" encoding="UTF-8" standalone="no"?><svg xmlns="http://www.w3.org/2000/svg" xmlns:xlink="http://www.w3.org/1999/xlink" clip-rule="evenodd" fill="#bee6e2" fill-rule="evenodd" height="1457.4" preserveAspectRatio="xMidYMid meet" stroke-linejoin="round" stroke-miterlimit="2" version="1" viewBox="-5.9 451.4 4011.7 1457.4" width="4011.7" zoomAndPan="magnify"><g id="change1_1"><path d="M957.091,730.611C944.272,716.311 931.014,699.736 919.148,681.455C877.978,618.029 853.65,534.395 919.578,453.563C920.68,452.212 922.343,451.444 924.086,451.481C925.828,451.518 927.457,452.356 928.501,453.752C928.501,453.752 1005.35,556.049 969.392,727.337C997.944,758.412 1023.23,777.368 1023.23,777.368L1024,778.072C1026.16,780.431 1028.01,782.971 1029.55,785.676C1050.33,786.8 1069.17,784.48 1085.96,779.294L1086.23,776.903L1086.36,775.552C1060.21,761.387 1055.11,733.108 1062.15,699.733C1078.05,624.341 1156.2,522.388 1156.2,522.388C1157.37,520.863 1159.24,520.037 1161.15,520.195C1163.07,520.352 1164.78,521.471 1165.68,523.167C1213,611.621 1199.34,713.924 1136.88,764.802C1125.1,774.395 1111.57,782.198 1096.37,787.748C1093.94,807.327 1088.48,843.343 1077.94,879.732C1072.53,898.371 1065.77,917.082 1057.42,933.805C1181.62,810.762 1301.96,838.629 1301.96,838.629C1304.81,839.278 1306.7,841.991 1306.31,844.89C1297.9,908.601 1250.65,942.666 1196.61,960.263C1131.11,981.591 1055.85,978.569 1031.94,976.901C1016.87,983.985 877.886,1053.35 846.975,1215.53C863.487,1207.73 897.103,1195.59 931.742,1205.22C937.325,1202.99 955.891,1195.27 980.121,1182.29C961.341,1099.93 1005.14,1051.66 1054.2,1023.96C1103.16,996.318 1157.35,989.526 1157.35,989.526C1159.16,989.299 1160.96,989.955 1162.2,991.288C1163.44,992.621 1163.97,994.469 1163.61,996.254C1152.1,1053.78 1112.97,1100.76 1069.95,1136.29C1047.5,1154.84 1024.03,1170.26 1003.02,1182.46C1025.48,1186.13 1070.37,1191.7 1120.31,1188.19C1147.38,1104.38 1187.93,1058.36 1226.8,1033.2C1286.86,994.332 1343.44,1004.95 1343.44,1004.95C1346.39,1005.5 1348.4,1008.26 1348.03,1011.24C1331.93,1137.75 1240.85,1182.75 1153.61,1195.93C1144.3,1197.34 1135.04,1198.38 1125.92,1199.12C1116.1,1203.29 1022.9,1242.61 952.23,1263.43C928.752,1270.35 907.64,1275.1 892.56,1276.12C896.913,1280.23 902.686,1285.32 909.776,1290.79C1068.36,1212.84 1238.62,1244.34 1238.62,1244.34C1240.71,1244.73 1242.41,1246.26 1243.02,1248.3C1243.62,1250.34 1243.03,1252.55 1241.49,1254.01C1156.62,1334.63 1080.93,1353.7 1020.81,1347.94C972.42,1343.3 933.973,1322.47 908.62,1304.02C891.244,1312.91 874.066,1323.16 857.317,1334.98C852.93,1344.7 826.222,1406.16 819.185,1477.55C814.128,1528.85 819.168,1585.37 850.632,1631.15C875.814,1667.79 899.634,1705.82 940.24,1740.93C1035.49,1823.29 1222.46,1889.27 1731.38,1886.27L1731.58,1886.27C1810.01,1888.52 3877.14,1897.55 3999.7,1891.11C4002.82,1890.95 4005.49,1893.35 4005.65,1896.47C4005.82,1899.59 4003.42,1902.26 4000.3,1902.42C3877.75,1908.85 1811.79,1899.85 1731.36,1897.6C1217.52,1900.61 1029,1832.65 932.833,1749.49C891.401,1713.67 866.994,1674.95 841.301,1637.57C808.279,1589.52 802.609,1530.28 807.916,1476.44C815.788,1396.58 847.681,1328.83 847.681,1328.83L849.523,1326.62C865.589,1315.2 882.045,1305.2 898.703,1296.43C882.822,1283.64 874.254,1273.55 874.254,1273.55C872.665,1271.68 872.461,1269 873.749,1266.91C875.036,1264.82 877.523,1263.8 879.907,1264.38C892.272,1267.39 918.406,1261.59 949.03,1252.57C997.95,1238.16 1057.74,1214.81 1092.77,1200.59C1039.96,1201.1 997.247,1193.14 987.502,1191.16C956.53,1207.91 934.042,1216.49 934.042,1216.49C932.873,1216.93 931.59,1216.98 930.392,1216.62C885.747,1203.18 842.46,1230.7 842.46,1230.7C840.583,1231.89 838.185,1231.87 836.327,1230.65C834.469,1229.43 833.495,1227.24 833.836,1225.05C858.564,1065.93 983.486,989.467 1019.18,970.648C1019.17,969.117 1019.79,967.621 1020.94,966.532C1042.43,946.161 1057.04,911.147 1067.06,876.579C1076.54,843.867 1081.82,811.462 1084.47,791.531C1069.17,795.708 1052.35,797.732 1034.09,797.206C1035.5,802.952 1035.94,809.197 1035.51,815.849C1034.62,829.748 1029.88,845.523 1022.57,862.049C989.56,936.686 903.844,1027.58 903.844,1027.58C902.514,1028.99 900.554,1029.62 898.651,1029.25C889.084,1027.39 880.379,1024.56 872.47,1020.88C866.123,1039.98 861.186,1051.85 861.186,1051.85C861.092,1052.08 860.982,1052.3 860.859,1052.51L835.296,1096.63L826.606,1098C809.068,1082.19 792.53,1066.79 776.942,1051.78C766.547,1052.26 756.405,1052.37 746.497,1052.15C747.06,1053.07 747.485,1053.78 747.77,1054.26C783.032,1087.25 788.157,1139.2 780.942,1189.91C770.333,1264.48 733.518,1336.02 733.518,1336.02C732.445,1338.1 730.196,1339.31 727.864,1339.05C725.532,1338.8 723.601,1337.13 723.007,1334.86C718.49,1317.59 701.502,1301.83 683.103,1288.82C657.103,1270.44 627.829,1257.82 622.361,1255.53C553.524,1253.15 496.698,1223.62 459.902,1191.23C437.436,1171.45 422.445,1150.51 416.374,1133.9C407.704,1136.78 399.306,1139.12 391.164,1140.96C391.595,1142.41 391.852,1143.37 391.954,1143.76C422.175,1240.01 539.544,1297.05 539.544,1297.05C541.032,1297.78 542.128,1299.12 542.542,1300.72C542.956,1302.33 542.647,1304.03 541.696,1305.39C532.859,1318 512.866,1334.27 493.461,1348.41C529.893,1348.73 573.98,1348.91 605.568,1352.6C617.237,1353.96 627.255,1355.81 634.69,1358.27C640.427,1360.17 644.765,1362.52 647.515,1365.12C690.49,1405.88 704.624,1464.48 705.826,1520.23C707.604,1602.69 681.218,1678.63 681.218,1678.63L680.973,1679.23C640.89,1762.62 563.928,1809.51 469.414,1836.59C329.78,1876.61 151.642,1873.32 0.384,1883.61C-2.733,1883.82 -5.437,1881.46 -5.649,1878.35C-5.861,1875.23 -3.502,1872.53 -0.384,1872.31C150.11,1862.08 327.366,1865.52 466.295,1825.71C557.382,1799.61 631.912,1754.9 670.622,1674.62C672.372,1669.47 696.175,1597.92 694.505,1520.47C693.366,1467.65 680.441,1411.96 639.723,1373.34C637.905,1371.62 634.928,1370.28 631.135,1369.02C624.276,1366.76 615.021,1365.1 604.255,1363.84C568.325,1359.65 516.124,1360.04 477.69,1359.56C465.457,1367.98 454.976,1374.7 449.838,1377.94C448.854,1379.78 446.928,1380.93 444.825,1380.92C444.825,1380.92 383.456,1380.64 322.827,1356.22C261.33,1331.46 200.73,1282.13 203.726,1184.3C203.782,1182.45 204.735,1180.75 206.278,1179.74C207.821,1178.73 209.762,1178.53 211.477,1179.21C211.477,1179.21 323.912,1223.93 410.608,1322.74C405.226,1304.92 404.727,1278.09 415.735,1237.66C416.213,1235.91 417.501,1234.49 419.2,1233.85C420.9,1233.21 422.803,1233.42 424.318,1234.42C424.318,1234.42 449.965,1251.23 460.516,1285.91C465.54,1302.43 467.199,1323.07 460.807,1347.92C465.086,1348.04 469.671,1348.13 474.493,1348.2C493.773,1334.88 516.394,1317.88 528.407,1303.99C503.234,1290.31 408.293,1233.82 381.112,1147.03C381.078,1146.92 381.048,1146.82 381.021,1146.71C381.021,1146.71 380.709,1145.46 380.019,1143.2C340.833,1150.08 308.101,1145.18 280.998,1133.94C196.511,1098.88 166.673,1001.2 166.673,1001.2C166.177,999.568 166.441,997.804 167.389,996.391C168.338,994.979 169.872,994.068 171.566,993.911C318.746,980.259 372.938,1090.55 387.541,1130.16C396.284,1128.23 405.36,1125.7 414.771,1122.49C415.477,1114.51 416.889,1093.24 415.301,1063.47C198.291,905.387 210.57,684.444 210.57,684.444C210.681,682.397 211.89,680.57 213.731,679.668C215.571,678.765 217.756,678.928 219.442,680.094C384.777,794.383 420.212,963.226 426.239,1057.39C443.653,1069.85 462.54,1081.88 483.03,1093.36C483.038,1093.36 483.045,1093.37 483.053,1093.37C483.053,1093.37 495.764,1100.61 514.058,1108.38C476.646,1057.21 479.529,1003.88 479.529,1003.88C479.618,1002.13 480.505,1000.53 481.933,999.527C483.361,998.526 485.172,998.239 486.84,998.749C537.681,1014.31 565.712,1038.85 581.181,1062.5C604.918,1098.79 599.322,1133.46 599.322,1133.46C598.906,1136.11 596.689,1138.1 594.012,1138.24C581.264,1138.87 567.429,1136.9 553.898,1133.61C572.859,1149.11 597.51,1162.97 629.554,1172.98C638.427,1155.69 654.705,1143.02 673.065,1133.94C711.472,1114.93 758.607,1111.67 758.607,1111.67C760.319,1111.55 761.991,1112.21 763.155,1113.47C764.319,1114.73 764.849,1116.45 764.595,1118.15C750.286,1214 641.803,1188.23 641.726,1188.21C639.842,1187.72 637.979,1187.23 636.151,1186.72C634.838,1191 634.037,1195.56 633.831,1200.44C633.827,1200.53 633.821,1200.62 633.812,1200.72L629.601,1246.32C639.367,1250.56 665.827,1262.74 689.64,1279.57C705.882,1291.05 720.756,1304.78 728.882,1319.54C739.332,1296.92 761.885,1243.47 769.732,1188.32C776.447,1141.12 772.629,1092.51 739.485,1062.02C739.071,1061.64 738.716,1061.2 738.432,1060.71C738.432,1060.71 736.521,1057.45 732.857,1051.62C465.281,1036.82 386.044,770.992 386.044,770.992C385.504,769.178 385.905,767.214 387.115,765.758C388.324,764.302 390.181,763.547 392.063,763.745C471.242,772.081 544.332,820.419 603.416,875.651C670.839,938.679 720.004,1010.51 739.26,1040.58C747.854,1040.94 756.655,1041.03 765.661,1040.83C642.394,920.128 580.934,824.974 551.081,744.627C516.536,651.651 524.174,578.329 528.106,507.917C528.212,506.012 529.27,504.289 530.921,503.333C532.572,502.377 534.593,502.317 536.298,503.172C871.264,671.239 791.643,1030.69 787.924,1046.63C800.958,1059.12 814.637,1071.87 829.006,1084.9L850.867,1047.17C851.716,1045.1 856.488,1033.31 862.368,1015.47C828.579,994.839 811.462,956.964 803.896,915.596C789.489,836.824 809.799,745.784 809.799,745.784C810.137,744.273 811.078,742.967 812.404,742.168C813.731,741.37 815.326,741.149 816.819,741.558C879.432,758.691 899.28,812.443 899.928,871.179C900.478,921.001 887.159,974.284 875.987,1009.98C882.59,1013.19 889.83,1015.73 897.76,1017.5C911.096,1003.07 982.893,923.767 1012.21,857.469C1018.92,842.309 1023.39,827.873 1024.21,815.122C1024.65,808.341 1024.04,802.067 1022.08,796.506C999.901,794.577 975.755,789.013 949.734,779.169C720.228,729.499 702.753,562.002 702.753,562.002C702.578,560.377 703.114,558.755 704.223,557.554C705.331,556.353 706.905,555.69 708.539,555.736C800.546,558.287 862.766,612.433 901.896,666.095C927.429,701.108 943.092,735.855 950.832,755.573C953.196,747.096 955.276,738.775 957.091,730.611ZM214.954,1193.03C215.766,1279.25 271.151,1323.21 327.057,1345.72C369.393,1362.77 412.101,1367.65 432.509,1369.04C358.647,1262.49 245.257,1206.59 214.954,1193.03ZM436.023,1354.45C438.485,1357.82 440.907,1361.25 443.284,1364.73C444.223,1362.43 445.089,1360.16 445.884,1357.93C442.932,1357.25 439.546,1356.16 436.023,1354.45ZM458.176,1359.18L457.454,1359.15L457.237,1359.79L458.176,1359.18ZM424.475,1249.1C412.274,1299.06 419.317,1324.06 430.657,1336.53C436.879,1343.38 444.224,1346.06 449.297,1347.11C455.646,1323.84 454.359,1304.58 449.683,1289.21C443.58,1269.15 431.804,1255.84 424.475,1249.1ZM1225.12,1253.75C1185.53,1248.53 1049.52,1236.78 920.113,1298.35C944.103,1314.93 978.855,1332.54 1021.89,1336.67C1077.63,1342.01 1147.07,1324.57 1225.12,1253.75ZM431.689,1140.33C438.828,1153.44 451.046,1168.35 467.384,1182.73C498.481,1210.1 544.54,1235.33 600.258,1242.4L431.689,1140.33ZM426.965,1071.76C427.928,1097.7 426.692,1116.19 426.031,1123.66L618.777,1240.38L622.527,1199.78C622.786,1194 623.738,1188.59 625.284,1183.51C581.138,1169.6 550.333,1148.74 528.841,1126.09C500.092,1115.96 477.483,1103.23 477.496,1103.24C459.456,1093.13 442.632,1082.6 426.965,1071.76ZM1336.02,1015.43C1321.27,1014.11 1278.2,1013.43 1232.95,1042.71C1196.35,1066.4 1158.52,1109.58 1132.57,1187.15C1138.97,1186.51 1145.43,1185.71 1151.91,1184.74C1233.41,1172.42 1318.78,1131.22 1336.02,1015.43ZM752.061,1123.69C737.871,1125.37 705.617,1130.46 678.088,1144.09C662.664,1151.72 648.634,1162.04 640.663,1176.22C641.921,1176.56 643.189,1176.89 644.468,1177.22C644.468,1177.22 735.156,1199.65 752.061,1123.69ZM1150.69,1002.05C1134.29,1005 1095.57,1013.61 1059.76,1033.82C1015.14,1059.02 975.031,1102.57 990.471,1176.61C1012.65,1164.13 1038.31,1147.74 1062.74,1127.56C1101.81,1095.29 1137.81,1053.33 1150.69,1002.05ZM376.288,1132.34C361.99,1094.57 311.831,996.013 179.844,1004.62C188.02,1026.48 218.531,1095.76 285.338,1123.48C310.334,1133.85 340.407,1138.32 376.288,1132.34ZM490.967,1011.98C491.916,1029.77 498.163,1075.97 535.936,1116.75C552.767,1122.46 571.449,1126.98 588.51,1127.04C588.911,1117.25 587.873,1093.42 571.705,1068.7C558.055,1047.83 533.721,1026.5 490.967,1011.98ZM221.821,695.649C222.276,717.879 226.304,772.814 252.263,838.844C278.222,904.874 326.114,981.999 414.297,1048.61C406.839,957.047 370.648,803.406 221.821,695.649ZM399.706,776.111C415.38,819.971 499.686,1022.45 725.239,1039.76C703.814,1007.09 657.54,941.748 595.683,883.923C540.575,832.407 473.087,786.73 399.706,776.111ZM538.91,517.225C534.982,583.639 529.237,653.324 561.695,740.683C591.54,821.007 653.572,916.141 778.326,1037.38C788.517,986.235 837.295,672.613 538.91,517.225ZM819.628,754.229C815.528,775.353 803.176,848.724 815.034,913.559C821.812,950.617 836.506,984.997 865.943,1004.28C876.703,969.512 889.13,918.799 888.606,871.304C888.035,819.607 872.086,771.552 819.628,754.229ZM1294.26,848.796C1268.91,845.245 1154.53,837.708 1042.6,966.194C1072.56,967.634 1136.57,967.904 1193.1,949.496C1241.51,933.733 1284.57,904.196 1294.26,848.796ZM966.39,740.689C964.079,750.339 961.405,760.207 958.338,770.278C977.897,777.347 996.307,781.881 1013.52,784.168C1006.53,778.634 987.755,763.191 966.39,740.689ZM1159.79,536.515C1142.11,560.642 1086.24,640.418 1073.23,702.07C1067.12,731.018 1070.39,755.907 1094.73,767.082C1096.9,768.077 1098.21,770.324 1098.01,772.7C1098.01,772.7 1097.95,773.51 1097.8,775.033C1109.62,770.142 1120.28,763.724 1129.73,756.023C1186.63,709.673 1199.43,617.846 1159.79,536.515ZM715.129,567.353C721.212,597.384 757.327,721.993 942.673,765.958C936.378,748.877 920.623,710.994 892.747,672.766C856.357,622.863 799.223,572.237 715.129,567.353ZM923.589,466.792C867.546,541.003 890.914,617.16 928.646,675.29C938.469,690.424 949.273,704.356 959.955,716.742C985.992,580.067 938.355,490.449 923.589,466.792Z" fill="inherit"/></g></svg>